Dinish-Bold.ufo
<glyph name="dollar" format="2">
  <advance width="514"/>
  <unicode hex="0024"/>
  <outline>
    <contour>
      <point x="30" y="232" type="curve"/>
      <point x="147" y="232" type="line"/>
      <point x="154.542" y="167.542"/>
      <point x="184.506" y="139"/>
      <point x="250" y="139" type="curve" smooth="yes"/>
      <point x="304.128" y="139"/>
      <point x="338" y="162.021"/>
      <point x="338" y="219" type="curve" smooth="yes"/>
      <point x="338" y="374.598"/>
      <point x="45" y="234.725"/>
      <point x="45" y="488" type="curve" smooth="yes"/>
      <point x="45" y="587.919"/>
      <point x="101.337" y="656.678"/>
      <point x="199" y="677" type="curve"/>
      <point x="199" y="758" type="line"/>
      <point x="304" y="758" type="line"/>
      <point x="304" y="676" type="line"/>
      <point x="399.34" y="654.359"/>
      <point x="448.402" y="585.466"/>
      <point x="454" y="490" type="curve"/>
      <point x="333" y="490" type="line"/>
      <point x="327.446" y="544.343"/>
      <point x="304.465" y="574"/>
      <point x="247" y="574" type="curve" smooth="yes"/>
      <point x="197.316" y="574"/>
      <point x="168" y="548.361"/>
      <point x="168" y="498" type="curve" smooth="yes"/>
      <point x="168" y="354.141"/>
      <point x="463" y="485.388"/>
      <point x="463" y="229" type="curve" smooth="yes"/>
      <point x="463" y="122.629"/>
      <point x="408.42" y="55.851"/>
      <point x="304" y="35" type="curve"/>
      <point x="304" y="-61" type="line"/>
      <point x="199" y="-61" type="line"/>
      <point x="199" y="33" type="line"/>
      <point x="89.877" y="50.095"/>
      <point x="35.608" y="125.041"/>
    </contour>
  </outline>
</glyph>
<glyph name="parenright" format="2">
  <advance width="317"/>
  <unicode hex="0029"/>
  <outline>
    <contour>
      <point x="145" y="336" type="curve" smooth="yes"/>
      <point x="145" y="479.842"/>
      <point x="111.214" y="629.506"/>
      <point x="46" y="758" type="curve"/>
      <point x="138" y="758" type="line"/>
      <point x="225.983" y="631.489"/>
      <point x="271" y="490.187"/>
      <point x="271" y="336" type="curve" smooth="yes"/>
      <point x="271" y="182.625"/>
      <point x="224.799" y="40.725"/>
      <point x="139" y="-86" type="curve"/>
      <point x="46" y="-86" type="line"/>
      <point x="110.488" y="44.984"/>
      <point x="145" y="189.934"/>
    </contour>
  </outline>
</glyph>
<glyph name="four" format="2">
  <advance width="533"/>
  <unicode hex="0034"/>
  <outline>
    <contour>
      <point x="498" y="113" type="line"/>
      <point x="440" y="113" type="line"/>
      <point x="440" y="0" type="line"/>
      <point x="306" y="0" type="line"/>
      <point x="306" y="113" type="line"/>
      <point x="36" y="113" type="line"/>
      <point x="36" y="230" type="line"/>
      <point x="238" y="707" type="line"/>
      <point x="372" y="707" type="line"/>
      <point x="170" y="230" type="line"/>
      <point x="306" y="230" type="line"/>
      <point x="306" y="396" type="line"/>
      <point x="440" y="396" type="line"/>
      <point x="440" y="230" type="line"/>
      <point x="498" y="230" type="line"/>
    </contour>
  </outline>
</glyph>
<glyph name="six" format="2">
  <advance width="528"/>
  <unicode hex="0036"/>
  <outline>
    <contour>
      <point x="46" y="229" type="line" smooth="yes"/>
      <point x="46" y="286.356"/>
      <point x="66.073" y="341.586"/>
      <point x="92" y="392" type="curve" smooth="yes"/>
      <point x="254" y="707" type="line"/>
      <point x="395" y="707" type="line"/>
      <point x="249" y="421" type="line"/>
      <point x="265.115" y="428.021"/>
      <point x="282.487" y="431"/>
      <point x="300" y="431" type="curve" smooth="yes"/>
      <point x="418.549" y="431"/>
      <point x="482" y="347.226"/>
      <point x="482" y="234" type="curve" smooth="yes"/>
      <point x="482" y="202" type="line" smooth="yes"/>
      <point x="482" y="68.657"/>
      <point x="395.554" y="-11"/>
      <point x="264" y="-11" type="curve" smooth="yes"/>
      <point x="132.208" y="-11"/>
      <point x="46" y="62.899"/>
      <point x="46" y="198" type="curve" smooth="yes"/>
    </contour>
    <contour>
      <point x="348" y="196" type="curve" smooth="yes"/>
      <point x="348" y="227" type="line" smooth="yes"/>
      <point x="348" y="280.917"/>
      <point x="320.898" y="319"/>
      <point x="264" y="319" type="curve" smooth="yes"/>
      <point x="208.258" y="319"/>
      <point x="181" y="280.805"/>
      <point x="181" y="228" type="curve" smooth="yes"/>
      <point x="181" y="195" type="line" smooth="yes"/>
      <point x="181" y="143.141"/>
      <point x="208.628" y="102"/>
      <point x="264" y="102" type="curve" smooth="yes"/>
      <point x="321.098" y="102"/>
      <point x="348" y="142.54"/>
    </contour>
  </outline>
</glyph>
<glyph name="A" format="2">
  <advance width="620"/>
  <unicode hex="0041"/>
  <anchor x="309" y="707" name="top"/>
  <outline>
    <contour>
      <point x="431" y="137" type="line"/>
      <point x="188" y="137" type="line"/>
      <point x="145" y="0" type="line"/>
      <point x="4" y="0" type="line"/>
      <point x="255" y="707" type="line"/>
      <point x="365" y="707" type="line"/>
      <point x="616" y="0" type="line"/>
      <point x="474" y="0" type="line"/>
    </contour>
    <contour>
      <point x="395" y="249" type="line"/>
      <point x="309" y="520" type="line"/>
      <point x="224" y="249" type="line"/>
    </contour>
  </outline>
</glyph>
<glyph name="E" format="2">
  <advance width="544"/>
  <unicode hex="0045"/>
  <anchor x="284" y="707" name="top"/>
  <outline>
    <contour>
      <point x="195" y="590" type="line"/>
      <point x="195" y="415" type="line"/>
      <point x="463" y="415" type="line"/>
      <point x="463" y="298" type="line"/>
      <point x="195" y="298" type="line"/>
      <point x="195" y="117" type="line"/>
      <point x="509" y="117" type="line"/>
      <point x="509" y="0" type="line"/>
      <point x="60" y="0" type="line"/>
      <point x="60" y="707" type="line"/>
      <point x="509" y="707" type="line"/>
      <point x="509" y="590" type="line"/>
    </contour>
  </outline>
</glyph>
<glyph name="F" format="2">
  <advance width="539"/>
  <unicode hex="0046"/>
  <anchor x="285" y="707" name="top"/>
  <outline>
    <contour>
      <point x="195" y="590" type="line"/>
      <point x="195" y="409" type="line"/>
      <point x="464" y="409" type="line"/>
      <point x="464" y="292" type="line"/>
      <point x="195" y="292" type="line"/>
      <point x="195" y="0" type="line"/>
      <point x="60" y="0" type="line"/>
      <point x="60" y="707" type="line"/>
      <point x="509" y="707" type="line"/>
      <point x="509" y="590" type="line"/>
    </contour>
  </outline>
</glyph>
<glyph name="G" format="2">
  <advance width="613"/>
  <unicode hex="0047"/>
  <anchor x="302" y="707" name="top"/>
  <outline>
    <contour>
      <point x="51" y="273" type="curve" smooth="yes"/>
      <point x="51" y="435" type="line" smooth="yes"/>
      <point x="51" y="608.978"/>
      <point x="126.785" y="717"/>
      <point x="310" y="717" type="curve" smooth="yes"/>
      <point x="460.717" y="717"/>
      <point x="563.897" y="637.237"/>
      <point x="563" y="480" type="curve"/>
      <point x="429" y="480" type="line"/>
      <point x="429" y="554.683"/>
      <point x="382.24" y="599"/>
      <point x="309" y="599" type="curve" smooth="yes"/>
      <point x="204.657" y="599"/>
      <point x="186" y="514.093"/>
      <point x="186" y="428" type="curve" smooth="yes"/>
      <point x="186" y="275" type="line" smooth="yes"/>
      <point x="186" y="186.09"/>
      <point x="211.206" y="112"/>
      <point x="314" y="112" type="curve" smooth="yes"/>
      <point x="419.156" y="112"/>
      <point x="432.03" y="175.159"/>
      <point x="432.03" y="264.582" type="curve"/>
      <point x="432" y="273" type="line"/>
      <point x="307" y="273" type="line"/>
      <point x="307" y="384" type="line"/>
      <point x="563" y="384" type="line"/>
      <point x="563" y="263" type="line" smooth="yes"/>
      <point x="563" y="92.273"/>
      <point x="485.181" y="-8"/>
      <point x="308" y="-8" type="curve" smooth="yes"/>
      <point x="125.673" y="-8"/>
      <point x="51" y="100.301"/>
    </contour>
  </outline>
</glyph>
<glyph name="H" format="2">
  <advance width="623"/>
  <unicode hex="0048"/>
  <anchor x="312" y="707" name="top"/>
  <outline>
    <contour>
      <point x="563" y="707" type="line"/>
      <point x="563" y="0" type="line"/>
      <point x="429" y="0" type="line"/>
      <point x="429" y="299" type="line"/>
      <point x="195" y="299" type="line"/>
      <point x="195" y="0" type="line"/>
      <point x="60" y="0" type="line"/>
      <point x="60" y="707" type="line"/>
      <point x="195" y="707" type="line"/>
      <point x="195" y="416" type="line"/>
      <point x="429" y="416" type="line"/>
      <point x="429" y="707" type="line"/>
    </contour>
  </outline>
</glyph>
<glyph name="S" format="2">
  <advance width="561"/>
  <unicode hex="0053"/>
  <anchor x="276" y="707" name="top"/>
  <outline>
    <contour>
      <point x="26" y="215" type="curve"/>
      <point x="153" y="215" type="line"/>
      <point x="159.856" y="137.146"/>
      <point x="206.083" y="109"/>
      <point x="280" y="109" type="curve" smooth="yes"/>
      <point x="342.648" y="109"/>
      <point x="393" y="131.51"/>
      <point x="393" y="202" type="curve" smooth="yes"/>
      <point x="393" y="377.531"/>
      <point x="41" y="221.751"/>
      <point x="41" y="504" type="curve" smooth="yes"/>
      <point x="41" y="643.515"/>
      <point x="148.068" y="717"/>
      <point x="279" y="717" type="curve" smooth="yes"/>
      <point x="412.525" y="717"/>
      <point x="503.643" y="641.826"/>
      <point x="513" y="506" type="curve"/>
      <point x="384" y="506" type="line"/>
      <point x="384" y="573.464"/>
      <point x="340.069" y="604"/>
      <point x="276" y="604" type="curve" smooth="yes"/>
      <point x="218.09" y="604"/>
      <point x="171" y="577.479"/>
      <point x="171" y="514" type="curve" smooth="yes"/>
      <point x="171" y="352.028"/>
      <point x="525" y="496.835"/>
      <point x="525" y="213" type="curve" smooth="yes"/>
      <point x="525" y="59.78"/>
      <point x="414.127" y="-6"/>
      <point x="273" y="-6" type="curve" smooth="yes"/>
      <point x="128.686" y="-6"/>
      <point x="35.341" y="66.926"/>
    </contour>
  </outline>
</glyph>
<glyph name="bracketleft" format="2">
  <advance width="322"/>
  <unicode hex="005B"/>
  <outline>
    <contour>
      <point x="60" y="759" type="line"/>
      <point x="276" y="759" type="line"/>
      <point x="276" y="641" type="line"/>
      <point x="187" y="641" type="line"/>
      <point x="187" y="32" type="line"/>
      <point x="276" y="32" type="line"/>
      <point x="276" y="-86" type="line"/>
      <point x="60" y="-86" type="line"/>
    </contour>
  </outline>
</glyph>
<glyph name="i" format="2">
  <advance width="246"/>
  <unicode hex="0069"/>
  <outline>
    <contour>
      <point x="60" y="532" type="line"/>
      <point x="186" y="532" type="line"/>
      <point x="186" y="0" type="line"/>
      <point x="60" y="0" type="line"/>
    </contour>
    <contour>
      <point x="58" y="707" type="line"/>
      <point x="187" y="707" type="line"/>
      <point x="187" y="605" type="line"/>
      <point x="58" y="605" type="line"/>
    </contour>
  </outline>
</glyph>
<glyph name="j" format="2">
  <advance width="246"/>
  <unicode hex="006A"/>
  <outline>
    <contour>
      <point x="57" y="707" type="line"/>
      <point x="186" y="707" type="line"/>
      <point x="186" y="605" type="line"/>
      <point x="57" y="605" type="line"/>
    </contour>
    <contour>
      <point x="-34" y="-50" type="line"/>
      <point x="21.23" y="-50"/>
      <point x="60" y="-59.041"/>
      <point x="60" y="10" type="curve" smooth="yes"/>
      <point x="60" y="532" type="line"/>
      <point x="186" y="532" type="line"/>
      <point x="186" y="2" type="line" smooth="yes"/>
      <point x="186" y="-100.435"/>
      <point x="129.112" y="-160"/>
      <point x="26" y="-160" type="curve" smooth="yes"/>
      <point x="-34" y="-160" type="line"/>
    </contour>
  </outline>
</glyph>
<glyph name="k" format="2">
  <advance width="532"/>
  <unicode hex="006B"/>
  <anchor x="119" y="707" name="top"/>
  <outline>
    <contour>
      <point x="239" y="223" type="line"/>
      <point x="182" y="158" type="line"/>
      <point x="182" y="0" type="line"/>
      <point x="55" y="0" type="line"/>
      <point x="55" y="707" type="line"/>
      <point x="182" y="707" type="line"/>
      <point x="182" y="311" type="line"/>
      <point x="354" y="532" type="line"/>
      <point x="505" y="532" type="line"/>
      <point x="323" y="321" type="line"/>
      <point x="518" y="0" type="line"/>
      <point x="365" y="0" type="line"/>
    </contour>
  </outline>
</glyph>
<glyph name="o" format="2">
  <advance width="522"/>
  <unicode hex="006F"/>
  <anchor x="262" y="532" name="top"/>
  <outline>
    <contour>
      <point x="46" y="217" type="curve" smooth="yes"/>
      <point x="46" y="316" type="line" smooth="yes"/>
      <point x="46" y="455.207"/>
      <point x="120.104" y="539"/>
      <point x="262" y="539" type="curve" smooth="yes"/>
      <point x="404.004" y="539"/>
      <point x="476" y="454.531"/>
      <point x="476" y="316" type="curve" smooth="yes"/>
      <point x="476" y="217" type="line" smooth="yes"/>
      <point x="476" y="77.342"/>
      <point x="405.177" y="-6"/>
      <point x="262" y="-6" type="curve" smooth="yes"/>
      <point x="118.929" y="-6"/>
      <point x="46" y="76.653"/>
    </contour>
    <contour>
      <point x="350" y="218" type="curve" smooth="yes"/>
      <point x="350" y="314" type="line" smooth="yes"/>
      <point x="350" y="372.477"/>
      <point x="329.272" y="426"/>
      <point x="262" y="426" type="curve" smooth="yes"/>
      <point x="194.356" y="426"/>
      <point x="172" y="373.546"/>
      <point x="172" y="314" type="curve" smooth="yes"/>
      <point x="172" y="218" type="line" smooth="yes"/>
      <point x="172" y="158.454"/>
      <point x="194.356" y="106"/>
      <point x="262" y="106" type="curve" smooth="yes"/>
      <point x="329.272" y="106"/>
      <point x="350" y="159.523"/>
    </contour>
  </outline>
</glyph>
<glyph name="q" format="2">
  <advance width="526"/>
  <unicode hex="0071"/>
  <anchor x="260" y="532" name="top"/>
  <outline>
    <contour>
      <point x="345" y="48" type="line"/>
      <point x="314.085" y="9.577"/>
      <point x="270.35" y="-6"/>
      <point x="222" y="-6" type="curve" smooth="yes"/>
      <point x="93.548" y="-6"/>
      <point x="46" y="101.732"/>
      <point x="46" y="214" type="curve" smooth="yes"/>
      <point x="46" y="319" type="line" smooth="yes"/>
      <point x="46" y="434.116"/>
      <point x="94.658" y="539"/>
      <point x="225" y="539" type="curve" smooth="yes"/>
      <point x="275.032" y="539"/>
      <point x="317.005" y="518.053"/>
      <point x="347" y="478" type="curve"/>
      <point x="347" y="532" type="line"/>
      <point x="471" y="532" type="line"/>
      <point x="471" y="-160" type="line"/>
      <point x="345" y="-160" type="line"/>
    </contour>
    <contour>
      <point x="345" y="218" type="curve" smooth="yes"/>
      <point x="345" y="314" type="line" smooth="yes"/>
      <point x="345" y="370.574"/>
      <point x="323.48" y="426"/>
      <point x="258" y="426" type="curve" smooth="yes"/>
      <point x="190.464" y="426"/>
      <point x="173" y="372.249"/>
      <point x="173" y="314" type="curve" smooth="yes"/>
      <point x="173" y="218" type="line" smooth="yes"/>
      <point x="173" y="161.785"/>
      <point x="188.614" y="106"/>
      <point x="255" y="106" type="curve" smooth="yes"/>
      <point x="323.033" y="106"/>
      <point x="345" y="158.485"/>
    </contour>
  </outline>
</glyph>
<glyph name="t" format="2">
  <advance width="360"/>
  <unicode hex="0074"/>
  <anchor x="162" y="681" name="top"/>
  <outline>
    <contour>
      <point x="225" y="443" type="line"/>
      <point x="225" y="162" type="line" smooth="yes"/>
      <point x="225" y="111.141"/>
      <point x="272.573" y="107.031"/>
      <point x="317" y="108" type="curve"/>
      <point x="317" y="0" type="line"/>
      <point x="257" y="0" type="line" smooth="yes"/>
      <point x="162.396" y="0"/>
      <point x="99" y="57.98"/>
      <point x="99" y="154" type="curve" smooth="yes"/>
      <point x="99" y="443" type="line"/>
      <point x="26" y="443" type="line"/>
      <point x="26" y="532" type="line"/>
      <point x="99" y="532" type="line"/>
      <point x="99" y="637" type="line"/>
      <point x="225" y="681" type="line"/>
      <point x="225" y="532" type="line"/>
      <point x="328" y="532" type="line"/>
      <point x="328" y="443" type="line"/>
    </contour>
  </outline>
</glyph>
<glyph name="x" format="2">
  <advance width="470"/>
  <unicode hex="0078"/>
  <anchor x="240" y="532" name="top"/>
  <outline>
    <contour>
      <point x="329" y="0" type="line"/>
      <point x="230" y="168" type="line"/>
      <point x="142" y="0" type="line"/>
      <point x="9" y="0" type="line"/>
      <point x="169" y="274" type="line"/>
      <point x="18" y="532" type="line"/>
      <point x="152" y="532" type="line"/>
      <point x="240" y="381" type="line"/>
      <point x="318" y="532" type="line"/>
      <point x="452" y="532" type="line"/>
      <point x="299" y="279" type="line"/>
      <point x="461" y="0" type="line"/>
    </contour>
  </outline>
</glyph>
<glyph name="braceleft" format="2">
  <advance width="368"/>
  <unicode hex="007B"/>
  <outline>
    <contour>
      <point x="46" y="284" type="curve"/>
      <point x="46" y="392" type="line"/>
      <point x="102.763" y="391.941"/>
      <point x="124" y="419.35"/>
      <point x="124" y="474" type="curve" smooth="yes"/>
      <point x="124" y="633" type="line" smooth="yes"/>
      <point x="124" y="714.95"/>
      <point x="169.992" y="758"/>
      <point x="251" y="758" type="curve" smooth="yes"/>
      <point x="323" y="758" type="line"/>
      <point x="323" y="655" type="line"/>
      <point x="283.852" y="655"/>
      <point x="244" y="662.464"/>
      <point x="244" y="610" type="curve" smooth="yes"/>
      <point x="244" y="468" type="line" smooth="yes"/>
      <point x="244" y="406.293"/>
      <point x="235.891" y="359.59"/>
      <point x="171" y="338" type="curve"/>
      <point x="235.324" y="314.221"/>
      <point x="244" y="270.912"/>
      <point x="244" y="208" type="curve" smooth="yes"/>
      <point x="244" y="61" type="line" smooth="yes"/>
      <point x="244" y="8.536"/>
      <point x="283.852" y="16"/>
      <point x="323" y="16" type="curve"/>
      <point x="323" y="-86" type="line"/>
      <point x="251" y="-86" type="line" smooth="yes"/>
      <point x="169.116" y="-86"/>
      <point x="124" y="-42.454"/>
      <point x="124" y="40" type="curve" smooth="yes"/>
      <point x="124" y="202" type="line" smooth="yes"/>
      <point x="124" y="256.65"/>
      <point x="102.763" y="284.059"/>
    </contour>
  </outline>
</glyph>
<glyph name="cent" format="2">
  <advance width="560"/>
  <unicode hex="00A2"/>
  <outline>
    <contour>
      <point x="46" y="217" type="curve" smooth="yes"/>
      <point x="46" y="316" type="line" smooth="yes"/>
      <point x="46" y="451.939"/>
      <point x="114.785" y="539"/>
      <point x="255" y="539" type="curve"/>
      <point x="255" y="650" type="line"/>
      <point x="315" y="650" type="line"/>
      <point x="315" y="535" type="line"/>
      <point x="423.637" y="515.474"/>
      <point x="471" y="446.128"/>
      <point x="471" y="339" type="curve"/>
      <point x="350" y="339" type="line"/>
      <point x="350" y="394.087"/>
      <point x="320.213" y="426"/>
      <point x="264" y="426" type="curve" smooth="yes"/>
      <point x="194.5" y="426"/>
      <point x="172" y="376.48"/>
      <point x="172" y="314" type="curve" smooth="yes"/>
      <point x="172" y="218" type="line" smooth="yes"/>
      <point x="172" y="154.721"/>
      <point x="192.447" y="106"/>
      <point x="264" y="106" type="curve" smooth="yes"/>
      <point x="319.18" y="106"/>
      <point x="350" y="134.833"/>
      <point x="350" y="190" type="curve"/>
      <point x="471" y="190" type="line"/>
      <point x="471" y="183" type="line" smooth="yes"/>
      <point x="471" y="82.986"/>
      <point x="412.843" y="15.944"/>
      <point x="315" y="-2" type="curve"/>
      <point x="315" y="-102" type="line"/>
      <point x="255" y="-102" type="line"/>
      <point x="255" y="-6" type="line"/>
      <point x="113.506" y="-6"/>
      <point x="46" y="79.657"/>
    </contour>
  </outline>
</glyph>
<glyph name="ordfeminine" format="2">
  <advance width="361"/>
  <unicode hex="00AA"/>
  <outline>
    <contour>
      <point x="307" y="649" type="curve" smooth="yes"/>
      <point x="307" y="440" type="line"/>
      <point x="219" y="440" type="line"/>
      <point x="219" y="466" type="line"/>
      <point x="195.782" y="444.667"/>
      <point x="175.885" y="436"/>
      <point x="144" y="436" type="curve" smooth="yes"/>
      <point x="79.855" y="436"/>
      <point x="37" y="474.646"/>
      <point x="37" y="540" type="curve" smooth="yes"/>
      <point x="37" y="641.31"/>
      <point x="146.285" y="634"/>
      <point x="216" y="634" type="curve"/>
      <point x="216" y="654" type="line" smooth="yes"/>
      <point x="216" y="683.235"/>
      <point x="199.164" y="696"/>
      <point x="171" y="696" type="curve" smooth="yes"/>
      <point x="149.132" y="696"/>
      <point x="131" y="687.561"/>
      <point x="131" y="663" type="curve"/>
      <point x="46" y="663" type="line"/>
      <point x="46" y="665" type="line" smooth="yes"/>
      <point x="46" y="737.808"/>
      <point x="107.646" y="766"/>
      <point x="172" y="766" type="curve" smooth="yes"/>
      <point x="250.274" y="766"/>
      <point x="307" y="734.263"/>
    </contour>
    <contour>
      <point x="216" y="557" type="curve" smooth="yes"/>
      <point x="216" y="572" type="line"/>
      <point x="167" y="572" type="line" smooth="yes"/>
      <point x="146.814" y="572"/>
      <point x="125" y="567.508"/>
      <point x="125" y="543" type="curve" smooth="yes"/>
      <point x="125" y="518.938"/>
      <point x="145.152" y="511"/>
      <point x="166" y="511" type="curve" smooth="yes"/>
      <point x="198.302" y="511"/>
      <point x="216" y="522.706"/>
    </contour>
  </outline>
</glyph>
<glyph name="paragraph" format="2">
  <advance width="659"/>
  <unicode hex="00B6"/>
  <outline>
    <contour>
      <point x="262" y="259" type="line"/>
      <point x="139.875" y="268.125"/>
      <point x="60" y="362.147"/>
      <point x="60" y="483" type="curve" smooth="yes"/>
      <point x="60" y="618.776"/>
      <point x="160.366" y="707"/>
      <point x="293" y="707" type="curve" smooth="yes"/>
      <point x="568" y="707" type="line"/>
      <point x="568" y="-160" type="line"/>
      <point x="459" y="-160" type="line"/>
      <point x="459" y="604" type="line"/>
      <point x="375" y="604" type="line"/>
      <point x="375" y="-160" type="line"/>
      <point x="262" y="-160" type="line"/>
    </contour>
  </outline>
</glyph>
<glyph name="onehalf" format="2">
  <advance width="822"/>
  <unicode hex="00BD"/>
  <outline>
    <contour>
      <point x="99" y="592" type="line"/>
      <point x="30" y="543" type="line"/>
      <point x="30" y="655" type="line"/>
      <point x="100" y="707" type="line"/>
      <point x="205" y="707" type="line"/>
      <point x="205" y="278" type="line"/>
      <point x="99" y="278" type="line"/>
    </contour>
    <contour>
      <point x="513" y="82" type="line"/>
      <point x="653" y="257" type="line" smooth="yes"/>
      <point x="667.866" y="275.583"/>
      <point x="674" y="288.217"/>
      <point x="674" y="312" type="curve" smooth="yes"/>
      <point x="674" y="332.172"/>
      <point x="663.851" y="348"/>
      <point x="642" y="348" type="curve" smooth="yes"/>
      <point x="614.926" y="348"/>
      <point x="611" y="322.35"/>
      <point x="611" y="301" type="curve"/>
      <point x="510" y="301" type="line"/>
      <point x="510" y="316" type="line" smooth="yes"/>
      <point x="510" y="396.389"/>
      <point x="572.555" y="436"/>
      <point x="647" y="436" type="curve" smooth="yes"/>
      <point x="727.533" y="436"/>
      <point x="781" y="387.149"/>
      <point x="781" y="306" type="curve" smooth="yes"/>
      <point x="781" y="263.257"/>
      <point x="766.022" y="239.112"/>
      <point x="740" y="207" type="curve" smooth="yes"/>
      <point x="646" y="91" type="line"/>
      <point x="781" y="91" type="line"/>
      <point x="781" y="0" type="line"/>
      <point x="513" y="0" type="line"/>
    </contour>
    <contour>
      <point x="510" y="712" type="line"/>
      <point x="611" y="712" type="line"/>
      <point x="216" y="0" type="line"/>
      <point x="116" y="0" type="line"/>
    </contour>
  </outline>
</glyph>
<glyph name="questiondown" format="2">
  <advance width="461"/>
  <unicode hex="00BF"/>
  <outline>
    <contour>
      <point x="171" y="532" type="line"/>
      <point x="304" y="532" type="line"/>
      <point x="304" y="399" type="line"/>
      <point x="171" y="399" type="line"/>
    </contour>
    <contour>
      <point x="35" y="9" type="curve" smooth="yes"/>
      <point x="35" y="99.414"/>
      <point x="80.503" y="140.729"/>
      <point x="137" y="206" type="curve" smooth="yes"/>
      <point x="167.439" y="241.166"/>
      <point x="174.048" y="259.908"/>
      <point x="174.048" y="306.489" type="curve" smooth="yes"/>
      <point x="174.048" y="331" type="line"/>
      <point x="301" y="331" type="line"/>
      <point x="301" y="292" type="line" smooth="yes"/>
      <point x="301" y="139.434"/>
      <point x="166" y="124.128"/>
      <point x="166" y="16" type="curve" smooth="yes"/>
      <point x="166" y="-31.046"/>
      <point x="192.676" y="-55"/>
      <point x="239" y="-55" type="curve" smooth="yes"/>
      <point x="293.013" y="-55"/>
      <point x="308.218" y="-21.795"/>
      <point x="310" y="27" type="curve"/>
      <point x="434" y="27" type="line"/>
      <point x="434" y="-101.09"/>
      <point x="362.127" y="-170"/>
      <point x="234" y="-170" type="curve" smooth="yes"/>
      <point x="125.897" y="-170"/>
      <point x="35" y="-105.789"/>
    </contour>
  </outline>
</glyph>
<glyph name="Icircumflex" format="2">
  <advance width="267"/>
  <unicode hex="00CE"/>
  <outline>
    <contour>
      <point x="67" y="707" type="line"/>
      <point x="201" y="707" type="line"/>
      <point x="201" y="0" type="line"/>
      <point x="67" y="0" type="line"/>
    </contour>
    <contour>
      <point x="86" y="920" type="line"/>
      <point x="179" y="920" type="line"/>
      <point x="297" y="766" type="line"/>
      <point x="198" y="766" type="line"/>
      <point x="133" y="846" type="line"/>
      <point x="68" y="766" type="line"/>
      <point x="-32" y="766" type="line"/>
    </contour>
  </outline>
</glyph>
<glyph name="Eth" format="2">
  <advance width="685"/>
  <unicode hex="00D0"/>
  <outline>
    <contour>
      <point x="617" y="426" type="curve" smooth="yes"/>
      <point x="617" y="282" type="line" smooth="yes"/>
      <point x="617" y="109.376"/>
      <point x="541.228" y="0"/>
      <point x="359" y="0" type="curve" smooth="yes"/>
      <point x="114" y="0" type="line"/>
      <point x="114" y="301" type="line"/>
      <point x="39" y="301" type="line"/>
      <point x="39" y="419" type="line"/>
      <point x="114" y="419" type="line"/>
      <point x="114" y="707" type="line"/>
      <point x="363" y="707" type="line" smooth="yes"/>
      <point x="544.985" y="707"/>
      <point x="617" y="597.102"/>
    </contour>
    <contour>
      <point x="483" y="419" type="line" smooth="yes"/>
      <point x="483" y="502.992"/>
      <point x="464.434" y="590"/>
      <point x="362" y="590" type="curve" smooth="yes"/>
      <point x="248" y="590" type="line"/>
      <point x="248" y="419" type="line"/>
      <point x="369" y="419" type="line"/>
      <point x="369" y="301" type="line"/>
      <point x="248" y="301" type="line"/>
      <point x="248" y="117" type="line"/>
      <point x="362" y="117" type="line" smooth="yes"/>
      <point x="462.633" y="117"/>
      <point x="483" y="199.222"/>
      <point x="483" y="283" type="curve" smooth="yes"/>
    </contour>
  </outline>
</glyph>
<glyph name="ccedilla" format="2">
  <advance width="517"/>
  <unicode hex="00E7"/>
  <outline>
    <contour>
      <point x="350" y="339" type="line"/>
      <point x="350" y="394.087"/>
      <point x="320.213" y="426"/>
      <point x="264" y="426" type="curve" smooth="yes"/>
      <point x="194.499" y="426"/>
      <point x="172" y="376.479"/>
      <point x="172" y="314" type="curve" smooth="yes"/>
      <point x="172" y="218" type="line" smooth="yes"/>
      <point x="172" y="154.721"/>
      <point x="192.447" y="106"/>
      <point x="264" y="106" type="curve" smooth="yes"/>
      <point x="319.18" y="106"/>
      <point x="350" y="134.833"/>
      <point x="350" y="190" type="curve"/>
      <point x="471" y="190" type="line"/>
      <point x="471" y="183" type="line" smooth="yes"/>
      <point x="471" y="89.384"/>
      <point x="420.416" y="23.324"/>
      <point x="329" y="1" type="curve"/>
      <point x="279" y="-160" type="line"/>
      <point x="162" y="-160" type="line"/>
      <point x="225" y="-4" type="line"/>
      <point x="98.21" y="9.544"/>
      <point x="46" y="96.685"/>
      <point x="46" y="217" type="curve" smooth="yes"/>
      <point x="46" y="316" type="line" smooth="yes"/>
      <point x="46" y="456.538"/>
      <point x="118.297" y="539"/>
      <point x="262" y="539" type="curve" smooth="yes"/>
      <point x="392.755" y="539"/>
      <point x="471" y="471.958"/>
      <point x="471" y="339" type="curve"/>
    </contour>
  </outline>
</glyph>
<glyph name="uogonek" format="2">
  <advance width="532"/>
  <unicode hex="0173"/>
  <outline>
    <component base="u"/>
    <contour>
      <point x="193" y="-86" type="curve"/>
      <point x="305" y="33" type="line"/>
      <point x="396.259" y="33" type="line"/>
      <point x="295" y="-94" type="line"/>
      <point x="311.54" y="-112.299"/>
      <point x="355.076" y="-118.211"/>
      <point x="387" y="-118" type="curve"/>
      <point x="387" y="-207" type="line"/>
      <point x="301.512" y="-207"/>
      <point x="223.142" y="-171.217"/>
    </contour>
  </outline>
</glyph>
<glyph name="florin" format="2">
  <advance width="429"/>
  <unicode hex="0192"/>
  <outline>
    <contour>
      <point x="9" y="-40" type="line"/>
      <point x="69.492" y="-40"/>
      <point x="105.062" y="-21.674"/>
      <point x="112" y="25" type="curve" smooth="yes"/>
      <point x="156" y="321" type="line"/>
      <point x="76" y="321" type="line"/>
      <point x="76" y="433" type="line"/>
      <point x="172" y="433" type="line"/>
      <point x="188.054" y="536.639" type="line" smooth="yes"/>
      <point x="204.211" y="640.939"/>
      <point x="273.989" y="707"/>
      <point x="368" y="707" type="curve" smooth="yes"/>
      <point x="420" y="707" type="line"/>
      <point x="420" y="590" type="line"/>
      <point x="385" y="590" type="line" smooth="yes"/>
      <point x="341.122" y="590"/>
      <point x="320.304" y="569.326"/>
      <point x="314" y="527" type="curve" smooth="yes"/>
      <point x="300" y="433" type="line"/>
      <point x="402" y="433" type="line"/>
      <point x="402" y="321" type="line"/>
      <point x="284" y="321" type="line"/>
      <point x="237" y="9" type="line" smooth="yes"/>
      <point x="220.08" y="-103.32"/>
      <point x="173.279" y="-160"/>
      <point x="55" y="-160" type="curve" smooth="yes"/>
      <point x="9" y="-160" type="line"/>
    </contour>
  </outline>
</glyph>
<glyph name="dotlessj" format="2">
  <advance width="246"/>
  <unicode hex="0237"/>
  <outline>
    <contour>
      <point x="-34" y="-50" type="line"/>
      <point x="21.23" y="-50"/>
      <point x="60" y="-59.041"/>
      <point x="60" y="10" type="curve" smooth="yes"/>
      <point x="60" y="532" type="line"/>
      <point x="186" y="532" type="line"/>
      <point x="186" y="2" type="line" smooth="yes"/>
      <point x="186" y="-100.435"/>
      <point x="129.112" y="-160"/>
      <point x="26" y="-160" type="curve" smooth="yes"/>
      <point x="-34" y="-160" type="line"/>
    </contour>
  </outline>
</glyph>
<glyph name="breve" format="2">
  <advance width="512"/>
  <unicode hex="02D8"/>
  <outline>
    <contour>
      <point x="255" y="568" type="curve" smooth="yes"/>
      <point x="143.105" y="568"/>
      <point x="103.276" y="635.359"/>
      <point x="103.015" y="737.011" type="curve"/>
      <point x="103" y="743" type="line"/>
      <point x="182" y="743" type="line"/>
      <point x="181.971" y="738.147" type="line"/>
      <point x="181.971" y="686.094"/>
      <point x="192.87" y="640"/>
      <point x="255" y="640" type="curve" smooth="yes"/>
      <point x="313.184" y="640"/>
      <point x="328" y="689.996"/>
      <point x="328" y="743" type="curve"/>
      <point x="407" y="743" type="line"/>
      <point x="407" y="729" type="line" smooth="yes"/>
      <point x="407" y="630.187"/>
      <point x="357.272" y="568"/>
    </contour>
  </outline>
</glyph>
<glyph name="acutecomb" format="2">
  <unicode hex="0301"/>
  <anchor x="0" y="532" name="_top"/>
  <outline>
    <contour>
      <point x="15" y="738" type="line"/>
      <point x="156" y="738" type="line"/>
      <point x="14" y="602" type="line"/>
      <point x="-95" y="602" type="line"/>
    </contour>
  </outline>
</glyph>
<glyph name="circumflexcmb" format="2">
  <unicode hex="0302"/>
  <anchor x="0" y="532" name="_top"/>
  <outline>
    <contour>
      <point x="-47" y="745" type="line"/>
      <point x="46" y="745" type="line"/>
      <point x="164" y="591" type="line"/>
      <point x="65" y="591" type="line"/>
      <point x="0" y="671" type="line"/>
      <point x="-65" y="591" type="line"/>
      <point x="-165" y="591" type="line"/>
    </contour>
  </outline>
</glyph>
<glyph name="dieresiscmb" format="2">
  <unicode hex="0308"/>
  <anchor x="0" y="532" name="_top"/>
  <outline>
    <contour>
      <point x="-154" y="720" type="line"/>
      <point x="-44" y="720" type="line"/>
      <point x="-44" y="601" type="line"/>
      <point x="-154" y="601" type="line"/>
    </contour>
    <contour>
      <point x="43" y="720" type="line"/>
      <point x="153" y="720" type="line"/>
      <point x="153" y="601" type="line"/>
      <point x="43" y="601" type="line"/>
    </contour>
  </outline>
</glyph>
<glyph name="dotbelowcomb" format="2">
  <unicode hex="0323"/>
  <outline>
    <contour>
      <point x="-65" y="-86" type="line"/>
      <point x="69" y="-86" type="line"/>
      <point x="69" y="-188" type="line"/>
      <point x="-65" y="-188" type="line"/>
    </contour>
  </outline>
</glyph>
<glyph name="ogonekcmb" format="2">
  <unicode hex="0328"/>
  <outline>
    <contour>
      <point x="0" y="13" type="line"/>
      <point x="82" y="13" type="line"/>
      <point x="82" y="1" type="line"/>
      <point x="-10" y="-114" type="line"/>
      <point x="10.26" y="-133.3"/>
      <point x="48.928" y="-137.858"/>
      <point x="82" y="-138" type="curve"/>
      <point x="82" y="-227" type="line"/>
      <point x="-4.564" y="-227"/>
      <point x="-81.354" y="-192.331"/>
      <point x="-112" y="-106" type="curve"/>
    </contour>
  </outline>
</glyph>
<glyph name="Gecyr" format="2">
  <advance width="537"/>
  <unicode hex="0413"/>
  <anchor x="282" y="707" name="top"/>
  <outline>
    <contour>
      <point x="60" y="0" type="line"/>
      <point x="60" y="707" type="line"/>
      <point x="194" y="707" type="line"/>
      <point x="194" y="0" type="line"/>
    </contour>
    <contour>
      <point x="180" y="590" type="line"/>
      <point x="180" y="707" type="line"/>
      <point x="444" y="707" type="line"/>
      <point x="444" y="590" type="line"/>
    </contour>
  </outline>
</glyph>
<glyph name="Decyr" format="2">
  <advance width="728"/>
  <unicode hex="0414"/>
  <outline>
    <contour>
      <point x="574.229" y="-169.821" type="line"/>
      <point x="574.229" y="117.268" type="line"/>
      <point x="708.229" y="117.27" type="line"/>
      <point x="708.229" y="-169.821" type="line"/>
    </contour>
    <contour>
      <point x="26.623" y="-169.821" type="line"/>
      <point x="26.623" y="116.943" type="line"/>
      <point x="160.623" y="116.944" type="line"/>
      <point x="160.623" y="-169.821" type="line"/>
    </contour>
    <contour>
      <point x="77.412" y="-0.375" type="line"/>
      <point x="77.412" y="116.621" type="line"/>
      <point x="586.631" y="116.621" type="line"/>
      <point x="586.631" y="-0.375" type="line"/>
    </contour>
    <contour>
      <point x="499" y="0" type="line"/>
      <point x="499" y="707" type="line"/>
      <point x="633" y="707" type="line"/>
      <point x="633" y="0" type="line"/>
    </contour>
    <contour>
      <point x="250" y="590" type="line"/>
      <point x="250" y="707" type="line"/>
      <point x="514" y="707" type="line"/>
      <point x="514" y="590" type="line"/>
    </contour>
    <contour>
      <point x="56.98" y="116.808" type="line"/>
      <point x="103.177" y="116.944"/>
      <point x="152.74" y="222.559"/>
      <point x="172.86" y="507.063" type="curve" smooth="yes"/>
      <point x="187" y="707" type="line"/>
      <point x="321" y="707" type="line"/>
      <point x="305.66" y="490.093" type="line" smooth="yes"/>
      <point x="288.586" y="248.667"/>
      <point x="224.643" y="0"/>
      <point x="56.6" y="0" type="curve"/>
    </contour>
  </outline>
</glyph>
<glyph name="Zecyr" format="2">
  <advance width="621"/>
  <unicode hex="0417"/>
  <outline>
    <contour>
      <point x="570" y="199" type="curve" smooth="yes"/>
      <point x="570" y="63.573"/>
      <point x="453.605" y="-8"/>
      <point x="323" y="-8" type="curve" smooth="yes"/>
      <point x="167.105" y="-8"/>
      <point x="56.381" y="76.365"/>
      <point x="51.73" y="198.69" type="curve"/>
      <point x="186.73" y="199" type="line"/>
      <point x="186.73" y="144.481"/>
      <point x="245.788" y="109"/>
      <point x="320.46" y="109" type="curve" smooth="yes"/>
      <point x="382.211" y="109"/>
      <point x="436" y="145.518"/>
      <point x="436" y="208" type="curve" smooth="yes"/>
      <point x="436" y="270.045"/>
      <point x="399.005" y="301"/>
      <point x="340" y="301" type="curve" smooth="yes"/>
      <point x="248.73" y="301" type="line"/>
      <point x="248.73" y="418" type="line"/>
      <point x="332" y="418" type="line" smooth="yes"/>
      <point x="387.147" y="418"/>
      <point x="426" y="447"/>
      <point x="426" y="506" type="curve" smooth="yes"/>
      <point x="426" y="565.622"/>
      <point x="369.834" y="600"/>
      <point x="312.46" y="600" type="curve" smooth="yes"/>
      <point x="241.632" y="600"/>
      <point x="186.73" y="565.124"/>
      <point x="186.73" y="509.54" type="curve"/>
      <point x="51.73" y="509.54" type="line"/>
      <point x="51.959" y="637.187"/>
      <point x="152.089" y="717"/>
      <point x="312" y="717" type="curve" smooth="yes"/>
      <point x="438.352" y="717"/>
      <point x="561" y="648.111"/>
      <point x="561" y="514" type="curve" smooth="yes"/>
      <point x="561" y="451.284"/>
      <point x="528.409" y="392.15"/>
      <point x="472" y="364" type="curve"/>
      <point x="538.988" y="334.697"/>
      <point x="570" y="269.899"/>
    </contour>
  </outline>
</glyph>
<glyph name="Kacyr" format="2">
  <advance width="624"/>
  <unicode hex="041A"/>
  <anchor x="298" y="707" name="top"/>
  <outline>
    <contour>
      <point x="185.652" y="308.318" type="line"/>
      <point x="185.652" y="396.894" type="line"/>
      <point x="209.599" y="396.745" type="line"/>
      <point x="439" y="707" type="line"/>
      <point x="600" y="707" type="line"/>
      <point x="282.777" y="308.317" type="line"/>
    </contour>
    <contour>
      <point x="250.312" y="307.112" type="line"/>
      <point x="336.115" y="416" type="line"/>
      <point x="618" y="0" type="line"/>
      <point x="463" y="0" type="line"/>
    </contour>
    <contour>
      <point x="336.115" y="299" type="line"/>
      <point x="195" y="299" type="line"/>
      <point x="195" y="0" type="line"/>
      <point x="60" y="0" type="line"/>
      <point x="60" y="707" type="line"/>
      <point x="195" y="707" type="line"/>
      <point x="195" y="416" type="line"/>
      <point x="336.115" y="416" type="line"/>
    </contour>
  </outline>
</glyph>
<glyph name="Ucyr" format="2">
  <advance width="553"/>
  <unicode hex="0423"/>
  <anchor x="276" y="707" name="top"/>
  <outline>
    <contour>
      <point x="326" y="136" type="line" smooth="yes"/>
      <point x="286.437" y="35.149"/>
      <point x="228.305" y="-8"/>
      <point x="132" y="-8" type="curve" smooth="yes"/>
      <point x="70" y="-8" type="line"/>
      <point x="70" y="117" type="line"/>
      <point x="102" y="117" type="line" smooth="yes"/>
      <point x="143.562" y="117"/>
      <point x="174.212" y="130.456"/>
      <point x="184" y="153" type="curve" smooth="yes"/>
      <point x="224.316" y="245.856" type="line"/>
      <point x="233.623" y="285.349" type="line"/>
      <point x="402" y="707" type="line"/>
      <point x="550" y="707" type="line"/>
    </contour>
    <contour>
      <point x="205.072" y="193.154" type="line"/>
      <point x="4" y="707" type="line"/>
      <point x="151" y="707" type="line"/>
      <point x="284.566" y="338.326" type="line"/>
    </contour>
  </outline>
</glyph>
<glyph name="Tsecyr" format="2">
  <advance width="633"/>
  <unicode hex="0426"/>
  <outline>
    <contour>
      <point x="61.412" y="-0.375" type="line"/>
      <point x="61.412" y="116.621" type="line"/>
      <point x="570.631" y="116.621" type="line"/>
      <point x="570.631" y="-0.375" type="line"/>
    </contour>
    <contour>
      <point x="488.229" y="-169.821" type="line"/>
      <point x="488.229" y="117.268" type="line"/>
      <point x="622.229" y="117.27" type="line"/>
      <point x="622.229" y="-169.821" type="line"/>
    </contour>
    <contour>
      <point x="413" y="0" type="line"/>
      <point x="413" y="707" type="line"/>
      <point x="547" y="707" type="line"/>
      <point x="547" y="0" type="line"/>
    </contour>
    <contour>
      <point x="60.836" y="0" type="line"/>
      <point x="60.836" y="707" type="line"/>
      <point x="194.836" y="707" type="line"/>
      <point x="194.836" y="0" type="line"/>
    </contour>
  </outline>
</glyph>
<glyph name="Checyr" format="2">
  <advance width="628"/>
  <unicode hex="0427"/>
  <outline>
    <contour>
      <point x="60" y="467.51" type="curve" smooth="yes"/>
      <point x="60" y="707" type="line"/>
      <point x="195" y="707" type="line"/>
      <point x="195" y="472.51" type="line" smooth="yes"/>
      <point x="195" y="398.119"/>
      <point x="235.298" y="345.51"/>
      <point x="313" y="345.51" type="curve" smooth="yes"/>
      <point x="374.011" y="345.51"/>
      <point x="410.133" y="354.9"/>
      <point x="434" y="375.942" type="curve"/>
      <point x="494.595" y="375.942" type="line"/>
      <point x="494.595" y="284.743" type="line"/>
      <point x="443.722" y="244.354"/>
      <point x="392.555" y="228.51"/>
      <point x="313" y="228.51" type="curve" smooth="yes"/>
      <point x="159.883" y="228.51"/>
      <point x="60" y="322.865"/>
    </contour>
    <contour>
      <point x="434" y="707" type="line"/>
      <point x="568" y="707" type="line"/>
      <point x="568" y="0" type="line"/>
      <point x="434" y="0" type="line"/>
    </contour>
  </outline>
</glyph>
<glyph name="Shchacyr" format="2">
  <advance width="863"/>
  <unicode hex="0429"/>
  <outline>
    <contour>
      <point x="61.412" y="-0.375" type="line"/>
      <point x="61.412" y="116.621" type="line"/>
      <point x="839.631" y="116.621" type="line"/>
      <point x="839.631" y="-0.375" type="line"/>
    </contour>
    <contour>
      <point x="636" y="0" type="line"/>
      <point x="636" y="707" type="line"/>
      <point x="770" y="707" type="line"/>
      <point x="770" y="0" type="line"/>
    </contour>
    <contour>
      <point x="60.836" y="0" type="line"/>
      <point x="60.836" y="707" type="line"/>
      <point x="194.836" y="707" type="line"/>
      <point x="194.836" y="0" type="line"/>
    </contour>
    <contour>
      <point x="348.081" y="0" type="line"/>
      <point x="348.081" y="707" type="line"/>
      <point x="482.081" y="707" type="line"/>
      <point x="482.081" y="0" type="line"/>
    </contour>
    <contour>
      <point x="718.229" y="-169.821" type="line"/>
      <point x="718.229" y="117.268" type="line"/>
      <point x="852.229" y="117.27" type="line"/>
      <point x="852.229" y="-169.821" type="line"/>
    </contour>
  </outline>
</glyph>
<glyph name="vecyr" format="2">
  <advance width="505"/>
  <unicode hex="0432"/>
  <anchor x="278" y="707" name="top"/>
  <outline>
    <component base="dotlessi" xOffset="-5"/>
    <contour>
      <point x="458.99" y="152.752" type="curve" smooth="yes"/>
      <point x="458.99" y="206.102"/>
      <point x="435.338" y="251.851"/>
      <point x="384.248" y="273.901" type="curve"/>
      <point x="426.694" y="295.083"/>
      <point x="451.218" y="336.57"/>
      <point x="451.218" y="383.762" type="curve" smooth="yes"/>
      <point x="451.218" y="484.677"/>
      <point x="375.255" y="532"/>
      <point x="271.657" y="532" type="curve" smooth="yes"/>
      <point x="135.112" y="532" type="line"/>
      <point x="135.112" y="444.854" type="line"/>
      <point x="252.901" y="444.961" type="line" smooth="yes"/>
      <point x="296.073" y="445"/>
      <point x="323.634" y="422.607"/>
      <point x="323.634" y="377.742" type="curve" smooth="yes"/>
      <point x="323.634" y="333.346"/>
      <point x="294.398" y="313.539"/>
      <point x="252.901" y="313.539" type="curve" smooth="yes"/>
      <point x="135.112" y="313.539" type="line"/>
      <point x="135.112" y="227.489" type="line"/>
      <point x="258.921" y="227.489" type="line" smooth="yes"/>
      <point x="303.321" y="227.489"/>
      <point x="331.158" y="206.212"/>
      <point x="331.158" y="159.525" type="curve" smooth="yes"/>
      <point x="331.158" y="112.509"/>
      <point x="305.387" y="87.008"/>
      <point x="258.921" y="87.039" type="curve" smooth="yes"/>
      <point x="135.112" y="87.122" type="line"/>
      <point x="135.112" y="0" type="line"/>
      <point x="280.853" y="0" type="line" smooth="yes"/>
      <point x="388.068" y="0"/>
      <point x="458.99" y="50.847"/>
    </contour>
  </outline>
</glyph>
<glyph name="gecyr" format="2">
  <advance width="443"/>
  <unicode hex="0433"/>
  <anchor x="224" y="532" name="top"/>
  <outline>
    <component base="dotlessi"/>
    <contour>
      <point x="60" y="445" type="line"/>
      <point x="60" y="532" type="line"/>
      <point x="380.828" y="532" type="line"/>
      <point x="380.828" y="445" type="line"/>
    </contour>
  </outline>
</glyph>
<glyph name="decyr" format="2">
  <advance width="623"/>
  <unicode hex="0434"/>
  <outline>
    <component base="dotlessi" xOffset="354"/>
    <contour>
      <point x="10.623" y="-169.821" type="line"/>
      <point x="10.623" y="86.943" type="line"/>
      <point x="136.623" y="86.944" type="line"/>
      <point x="136.623" y="-169.821" type="line"/>
    </contour>
    <contour>
      <point x="61.412" y="-0.279" type="line"/>
      <point x="61.412" y="86.718" type="line"/>
      <point x="520.631" y="86.718" type="line"/>
      <point x="520.631" y="-0.279" type="line"/>
    </contour>
    <contour>
      <point x="486.229" y="-169.821" type="line"/>
      <point x="486.229" y="87.268" type="line"/>
      <point x="612.229" y="87.268" type="line"/>
      <point x="612.229" y="-169.821" type="line"/>
    </contour>
    <contour>
      <point x="32.804" y="86.944" type="line"/>
      <point x="89.285" y="87.061"/>
      <point x="147.839" y="222.03"/>
      <point x="164.86" y="391.343" type="curve" smooth="yes"/>
      <point x="179" y="531.994" type="line"/>
      <point x="304" y="531.994" type="line"/>
      <point x="288.66" y="368.778" type="line" smooth="yes"/>
      <point x="272.899" y="201.088"/>
      <point x="206.89" y="54.919"/>
      <point x="120.6" y="0" type="curve"/>
    </contour>
    <contour>
      <point x="234" y="445" type="line"/>
      <point x="234" y="532" type="line"/>
      <point x="448" y="532" type="line"/>
      <point x="448" y="445" type="line"/>
    </contour>
  </outline>
</glyph>
<glyph name="icyr" format="2">
  <advance width="574"/>
  <unicode hex="0438"/>
  <anchor x="282" y="532" name="top"/>
  <outline>
    <contour>
      <point x="412.651" y="532" type="curve"/>
      <point x="518.651" y="532" type="line"/>
      <point x="518.651" y="0" type="line"/>
      <point x="392.651" y="0" type="line"/>
      <point x="392.651" y="282.485" type="line" smooth="yes"/>
      <point x="392.651" y="348.408"/>
      <point x="403.985" y="463.221"/>
    </contour>
    <contour>
      <point x="55" y="532" type="line"/>
      <point x="181" y="532" type="line"/>
      <point x="181" y="250.346" type="line" smooth="yes"/>
      <point x="181" y="184.149"/>
      <point x="167.375" y="67.003"/>
      <point x="161" y="0" type="curve"/>
      <point x="55" y="0" type="line"/>
    </contour>
    <contour>
      <point x="191" y="0" type="line"/>
      <point x="160.651" y="-0.239" type="line"/>
      <point x="160.651" y="179.13" type="line"/>
      <point x="181" y="179" type="line"/>
      <point x="193.434" y="206.15"/>
      <point x="204.5" y="227.241"/>
      <point x="217.815" y="250.043" type="curve" smooth="yes"/>
      <point x="382.638" y="532.289" type="line"/>
      <point x="413.48" y="532.015" type="line"/>
      <point x="413.48" y="353.872" type="line"/>
      <point x="392.638" y="354.289" type="line"/>
      <point x="380.703" y="325.286"/>
      <point x="368.795" y="305.342"/>
      <point x="355.314" y="282.189" type="curve" smooth="yes"/>
    </contour>
  </outline>
</glyph>
<glyph name="yucyr" format="2">
  <advance width="723"/>
  <unicode hex="044E"/>
  <anchor x="503" y="532" name="top"/>
  <outline>
    <component base="dotlessi" xOffset="-5"/>
    <component base="o" xOffset="201"/>
    <contour>
      <point x="125" y="246" type="line"/>
      <point x="125" y="333" type="line"/>
      <point x="312.222" y="333" type="line"/>
      <point x="312.222" y="246" type="line"/>
    </contour>
  </outline>
</glyph>
<glyph name="djecyr" format="2">
  <advance width="533"/>
  <unicode hex="0452"/>
  <anchor x="118" y="707" name="top"/>
  <outline>
    <contour>
      <point x="256.163" y="-50" type="line"/>
      <point x="311.393" y="-50"/>
      <point x="350.163" y="-37.549"/>
      <point x="350.163" y="10" type="curve" smooth="yes"/>
      <point x="350.163" y="236.651" type="line"/>
      <point x="477.163" y="236.651" type="line"/>
      <point x="477.163" y="2" type="line" smooth="yes"/>
      <point x="477.163" y="-100.435"/>
      <point x="419.275" y="-160"/>
      <point x="316.163" y="-160" type="curve" smooth="yes"/>
      <point x="256.163" y="-160" type="line"/>
    </contour>
    <contour>
      <point x="55" y="707" type="line"/>
      <point x="182" y="707" type="line"/>
      <point x="182" y="485" type="line"/>
      <point x="212.789" y="519.536"/>
      <point x="258.925" y="539"/>
      <point x="305" y="539" type="curve" smooth="yes"/>
      <point x="422.366" y="539"/>
      <point x="477" y="457.047"/>
      <point x="477" y="347" type="curve" smooth="yes"/>
      <point x="477" y="0" type="line"/>
      <point x="350" y="0" type="line"/>
      <point x="350" y="332" type="line" smooth="yes"/>
      <point x="350" y="385.874"/>
      <point x="325.006" y="426"/>
      <point x="267" y="426" type="curve" smooth="yes"/>
      <point x="212.067" y="426"/>
      <point x="182" y="383.856"/>
      <point x="182" y="332" type="curve" smooth="yes"/>
      <point x="182" y="0" type="line"/>
      <point x="55" y="0" type="line"/>
    </contour>
    <contour>
      <point x="0" y="668.803" type="line"/>
      <point x="288" y="668.803" type="line"/>
      <point x="288" y="555.803" type="line"/>
      <point x="0" y="555.803" type="line"/>
    </contour>
  </outline>
</glyph>
<glyph name="bullet" format="2">
  <advance width="463"/>
  <unicode hex="2022"/>
  <outline>
    <contour>
      <point x="83" y="315" type="curve" smooth="yes"/>
      <point x="83" y="402.533"/>
      <point x="143.939" y="465"/>
      <point x="232" y="465" type="curve" smooth="yes"/>
      <point x="319.996" y="465"/>
      <point x="381" y="402.42"/>
      <point x="381" y="315" type="curve" smooth="yes"/>
      <point x="381" y="227.909"/>
      <point x="319.139" y="166"/>
      <point x="232" y="166" type="curve" smooth="yes"/>
      <point x="144.793" y="166"/>
      <point x="83" y="227.793"/>
    </contour>
  </outline>
</glyph>
<glyph name="five.tosf" format="2">
  <advance width="524"/>
  <outline>
    <contour>
      <point x="63" y="18" type="curve"/>
      <point x="186" y="18" type="line"/>
      <point x="185.777" y="-31.132"/>
      <point x="214.41" y="-58"/>
      <point x="263" y="-58" type="curve" smooth="yes"/>
      <point x="332.98" y="-58"/>
      <point x="340.388" y="0.411"/>
      <point x="340.388" y="56.231" type="curve" smooth="yes"/>
      <point x="340.388" y="117.062"/>
      <point x="339.756" y="192"/>
      <point x="262" y="192" type="curve" smooth="yes"/>
      <point x="228.185" y="192"/>
      <point x="202.409" y="175.059"/>
      <point x="189" y="144" type="curve"/>
      <point x="73" y="144" type="line"/>
      <point x="73" y="547" type="line"/>
      <point x="455" y="547" type="line"/>
      <point x="455" y="432" type="line"/>
      <point x="189" y="432" type="line"/>
      <point x="189" y="272" type="line"/>
      <point x="217.333" y="295.037"/>
      <point x="253.902" y="305"/>
      <point x="290" y="305" type="curve" smooth="yes"/>
      <point x="417.239" y="305"/>
      <point x="470" y="219.147"/>
      <point x="470" y="101" type="curve" smooth="yes"/>
      <point x="470" y="35" type="line" smooth="yes"/>
      <point x="470" y="-95.21"/>
      <point x="392.848" y="-171"/>
      <point x="263" y="-171" type="curve" smooth="yes"/>
      <point x="138.279" y="-171"/>
      <point x="62.911" y="-111.089"/>
    </contour>
  </outline>
</glyph>
<glyph name="one.numr" format="2">
  <advance width="259"/>
  <outline>
    <contour>
      <point x="99" y="592" type="line"/>
      <point x="30" y="543" type="line"/>
      <point x="30" y="655" type="line"/>
      <point x="100" y="707" type="line"/>
      <point x="205" y="707" type="line"/>
      <point x="205" y="278" type="line"/>
      <point x="99" y="278" type="line"/>
    </contour>
  </outline>
</glyph>
<glyph name="seven.tosf" format="2">
  <advance width="524"/>
  <outline>
    <contour>
      <point x="472" y="547" type="line"/>
      <point x="472" y="430" type="line"/>
      <point x="257" y="-160" type="line"/>
      <point x="122" y="-160" type="line"/>
      <point x="341" y="430" type="line"/>
      <point x="66" y="430" type="line"/>
      <point x="66" y="547" type="line"/>
    </contour>
  </outline>
</glyph>
<glyph name="three.dnom" format="2">
  <advance width="349"/>
  <outline>
    <contour>
      <point x="38" y="124" type="curve"/>
      <point x="133" y="124" type="line"/>
      <point x="133" y="95.371"/>
      <point x="138.44" y="80"/>
      <point x="171" y="80" type="curve" smooth="yes"/>
      <point x="201.576" y="80"/>
      <point x="207" y="105.32"/>
      <point x="207" y="130" type="curve" smooth="yes"/>
      <point x="207" y="176.728"/>
      <point x="177.968" y="176"/>
      <point x="141" y="176" type="curve"/>
      <point x="141" y="263" type="line"/>
      <point x="180.989" y="263"/>
      <point x="200" y="263.355"/>
      <point x="200" y="310" type="curve" smooth="yes"/>
      <point x="200" y="331.447"/>
      <point x="191.541" y="348"/>
      <point x="168" y="348" type="curve" smooth="yes"/>
      <point x="136.81" y="348"/>
      <point x="134" y="331.021"/>
      <point x="134" y="305" type="curve"/>
      <point x="40" y="305" type="line"/>
      <point x="40" y="315" type="line" smooth="yes"/>
      <point x="40" y="396.128"/>
      <point x="94.933" y="436"/>
      <point x="172" y="436" type="curve" smooth="yes"/>
      <point x="254.246" y="436"/>
      <point x="301" y="392.697"/>
      <point x="301" y="310" type="curve" smooth="yes"/>
      <point x="301" y="273.943"/>
      <point x="285.228" y="246.113"/>
      <point x="254" y="228" type="curve"/>
      <point x="300.004" y="210.163"/>
      <point x="308" y="164.958"/>
      <point x="308" y="121" type="curve" smooth="yes"/>
      <point x="308" y="42.408"/>
      <point x="250.644" y="-7"/>
      <point x="174" y="-7" type="curve" smooth="yes"/>
      <point x="81.825" y="-7"/>
      <point x="38" y="31.459"/>
    </contour>
  </outline>
</glyph>
<glyph name="three.tosf" format="2">
  <advance width="524"/>
  <outline>
    <contour>
      <point x="56" y="31" type="line"/>
      <point x="181" y="31" type="line"/>
      <point x="180.583" y="-28.391"/>
      <point x="200.68" y="-58"/>
      <point x="263" y="-58" type="curve" smooth="yes"/>
      <point x="330.096" y="-58"/>
      <point x="345" y="-8.196"/>
      <point x="345" y="49" type="curve" smooth="yes"/>
      <point x="345" y="135.975"/>
      <point x="288.146" y="141.343"/>
      <point x="217" y="141" type="curve"/>
      <point x="217" y="252" type="line"/>
      <point x="296.522" y="251.613"/>
      <point x="334" y="259.351"/>
      <point x="334" y="349" type="curve" smooth="yes"/>
      <point x="334" y="396.092"/>
      <point x="307.92" y="429"/>
      <point x="259" y="429" type="curve" smooth="yes"/>
      <point x="199.955" y="429"/>
      <point x="183.661" y="393.308"/>
      <point x="184" y="340" type="curve"/>
      <point x="61" y="340" type="line"/>
      <point x="61" y="356" type="line" smooth="yes"/>
      <point x="61" y="479.453"/>
      <point x="147.422" y="540"/>
      <point x="264" y="540" type="curve" smooth="yes"/>
      <point x="389.103" y="540"/>
      <point x="464" y="470.589"/>
      <point x="464" y="344" type="curve" smooth="yes"/>
      <point x="464" y="285.648"/>
      <point x="432.753" y="234.81"/>
      <point x="381" y="208" type="curve"/>
      <point x="458.692" y="175.566"/>
      <point x="475" y="108.1"/>
      <point x="475" y="31" type="curve" smooth="yes"/>
      <point x="475" y="-93.398"/>
      <point x="385.274" y="-167"/>
      <point x="265" y="-167" type="curve" smooth="yes"/>
      <point x="149.567" y="-167"/>
      <point x="56" y="-118.668"/>
      <point x="56" y="9" type="curve" smooth="yes"/>
    </contour>
  </outline>
</glyph>
<glyph name="tsecyr.loclBGR" format="2">
  <advance width="575"/>
  <outline>
    <component base="n" xScale="-1" yScale="-1" xOffset="532" yOffset="532"/>
    <contour>
      <point x="438.463" y="-169.821" type="line"/>
      <point x="438.463" y="87.268" type="line"/>
      <point x="564.463" y="87.268" type="line"/>
      <point x="564.463" y="-169.821" type="line"/>
    </contour>
  </outline>
</glyph>
<glyph name="two.numr" format="2">
  <advance width="354"/>
  <outline>
    <contour>
      <point x="45" y="359" type="line"/>
      <point x="185" y="535" type="line" smooth="yes"/>
      <point x="199.859" y="553.68"/>
      <point x="206" y="566.12"/>
      <point x="206" y="590" type="curve" smooth="yes"/>
      <point x="206" y="610.172"/>
      <point x="195.851" y="626"/>
      <point x="174" y="626" type="curve" smooth="yes"/>
      <point x="147.913" y="626"/>
      <point x="143" y="599.397"/>
      <point x="143" y="579" type="curve"/>
      <point x="42" y="579" type="line"/>
      <point x="42" y="594" type="line" smooth="yes"/>
      <point x="42" y="673.002"/>
      <point x="105.577" y="714"/>
      <point x="179" y="714" type="curve" smooth="yes"/>
      <point x="259.533" y="714"/>
      <point x="313" y="665.149"/>
      <point x="313" y="584" type="curve" smooth="yes"/>
      <point x="313" y="542.12"/>
      <point x="297.76" y="515.514"/>
      <point x="272" y="484" type="curve" smooth="yes"/>
      <point x="178" y="369" type="line"/>
      <point x="313" y="369" type="line"/>
      <point x="313" y="278" type="line"/>
      <point x="45" y="278" type="line"/>
    </contour>
  </outline>
</glyph>
<glyph name="vecyr.loclBGR" format="2">
  <advance width="545"/>
  <outline>
    <contour>
      <point x="498.99" y="219.55" type="curve" smooth="yes"/>
      <point x="498.99" y="92.948"/>
      <point x="401.884" y="-6"/>
      <point x="277.638" y="-6" type="curve" smooth="yes"/>
      <point x="133.616" y="-6"/>
      <point x="55" y="73.946"/>
      <point x="55" y="220.405" type="curve" smooth="yes"/>
      <point x="55" y="490.156" type="line" smooth="yes"/>
      <point x="55" y="628.759"/>
      <point x="139.407" y="717"/>
      <point x="271.987" y="717" type="curve" smooth="yes"/>
      <point x="407.085" y="717"/>
      <point x="491.21" y="644.765"/>
      <point x="491.21" y="528.76" type="curve" smooth="yes"/>
      <point x="491.21" y="447.371"/>
      <point x="445.899" y="380.855"/>
      <point x="381.755" y="368.082" type="curve"/>
      <point x="381.755" y="393.111" type="line"/>
      <point x="449.992" y="381.796"/>
      <point x="498.99" y="317.289"/>
    </contour>
    <contour>
      <point x="181" y="201.812" type="line" smooth="yes"/>
      <point x="181" y="137.879"/>
      <point x="213.519" y="106.07"/>
      <point x="278.92" y="106.03" type="curve" smooth="yes"/>
      <point x="315.06" y="106.007"/>
      <point x="371.15" y="136.157"/>
      <point x="371.15" y="224.446" type="curve" smooth="yes"/>
      <point x="371.15" y="286.058"/>
      <point x="333.776" y="332.48"/>
      <point x="278.92" y="332.48" type="curve" smooth="yes"/>
      <point x="165.64" y="332.48" type="line"/>
      <point x="165.64" y="418.52" type="line"/>
      <point x="272.9" y="418.52" type="line" smooth="yes"/>
      <point x="324.941" y="418.52"/>
      <point x="363.63" y="457.707"/>
      <point x="363.63" y="510.417" type="curve" smooth="yes"/>
      <point x="363.63" y="570.148"/>
      <point x="330.222" y="604.96"/>
      <point x="272.9" y="604.96" type="curve" smooth="yes"/>
      <point x="222.347" y="604.96"/>
      <point x="181" y="557.709"/>
      <point x="181" y="499.938" type="curve" smooth="yes"/>
    </contour>
  </outline>
</glyph>
<glyph name="yucyr.loclBGR" format="2">
  <advance width="723"/>
  <anchor x="503" y="532" name="top"/>
  <outline>
    <component base="o" xOffset="201"/>
    <contour>
      <point x="125" y="246" type="line"/>
      <point x="125" y="333" type="line"/>
      <point x="312.222" y="333" type="line"/>
      <point x="312.222" y="246" type="line"/>
    </contour>
    <contour>
      <point x="55" y="707" type="line"/>
      <point x="181" y="707" type="line"/>
      <point x="181" y="0" type="line"/>
      <point x="55" y="0" type="line"/>
    </contour>
  </outline>
</glyph>
<glyph name="zero.dnom" format="2">
  <advance width="358"/>
  <outline>
    <contour>
      <point x="41" y="145" type="curve" smooth="yes"/>
      <point x="41" y="291" type="line" smooth="yes"/>
      <point x="41" y="382.869"/>
      <point x="84.261" y="435"/>
      <point x="179" y="435" type="curve" smooth="yes"/>
      <point x="275.357" y="435"/>
      <point x="316" y="384.726"/>
      <point x="316" y="291" type="curve" smooth="yes"/>
      <point x="316" y="145" type="line" smooth="yes"/>
      <point x="316" y="50.464"/>
      <point x="279.458" y="-7"/>
      <point x="179" y="-7" type="curve" smooth="yes"/>
      <point x="77.955" y="-7"/>
      <point x="41" y="49.514"/>
    </contour>
    <contour>
      <point x="211" y="151" type="curve" smooth="yes"/>
      <point x="211" y="278" type="line" smooth="yes"/>
      <point x="211" y="303.902"/>
      <point x="214.639" y="345"/>
      <point x="179" y="345" type="curve" smooth="yes"/>
      <point x="144.011" y="345"/>
      <point x="146" y="303.832"/>
      <point x="146" y="278" type="curve" smooth="yes"/>
      <point x="146" y="151" type="line" smooth="yes"/>
      <point x="146" y="124.107"/>
      <point x="142.329" y="84"/>
      <point x="179" y="84" type="curve" smooth="yes"/>
      <point x="216.63" y="84"/>
      <point x="211" y="123.255"/>
    </contour>
  </outline>
</glyph>
<glyph name="zero.osf" format="2">
  <advance width="524"/>
  <outline>
    <contour>
      <point x="41" y="216" type="curve" smooth="yes"/>
      <point x="41" y="322" type="line" smooth="yes"/>
      <point x="41" y="462.991"/>
      <point x="105.145" y="544"/>
      <point x="251" y="544" type="curve" smooth="yes"/>
      <point x="397.198" y="544"/>
      <point x="462" y="463.728"/>
      <point x="462" y="322" type="curve" smooth="yes"/>
      <point x="462" y="216" type="line" smooth="yes"/>
      <point x="462" y="73.761"/>
      <point x="399.323" y="-10"/>
      <point x="251" y="-10" type="curve" smooth="yes"/>
      <point x="103.037" y="-10"/>
      <point x="41" y="74.51"/>
    </contour>
    <contour>
      <point x="328" y="238" type="curve" smooth="yes"/>
      <point x="328" y="295" type="line" smooth="yes"/>
      <point x="328" y="350.402"/>
      <point x="322.331" y="416"/>
      <point x="251" y="416" type="curve" smooth="yes"/>
      <point x="179.669" y="416"/>
      <point x="174" y="350.402"/>
      <point x="174" y="295" type="curve" smooth="yes"/>
      <point x="174" y="238" type="line" smooth="yes"/>
      <point x="174" y="182.598"/>
      <point x="179.669" y="117"/>
      <point x="251" y="117" type="curve" smooth="yes"/>
      <point x="322.331" y="117"/>
      <point x="328" y="182.598"/>
    </contour>
  </outline>
</glyph>
